<svg width="26" height="25" viewBox="0 0 26 25" fill="none" xmlns="http://www.w3.org/2000/svg">
<path d="M8.72935 2.10604C8.36842 1.27053 7.4169 0.825825 6.50757 1.0639L2.38275 2.14198C1.56716 2.35759 1 3.06733 1 3.87589C1 14.9891 10.4027 24 21.9991 24C22.8428 24 23.5834 23.4565 23.8084 22.6749L24.9333 18.7219C25.1817 17.8505 24.7177 16.9386 23.8459 16.5927L19.3461 14.7959C18.582 14.4905 17.6961 14.7016 17.1758 15.317L15.2822 17.5315C11.9823 16.0357 9.31057 13.4753 7.7497 10.3129L10.0605 8.50264C10.7027 7.99953 10.923 7.15504 10.6043 6.42284L8.72935 2.11053V2.10604Z" stroke="url(#paint0_linear_23_1175)" stroke-width="2"/>
<defs>
<linearGradient id="paint0_linear_23_1175" x1="21.4631" y1="1" x2="21.4774" y2="22.1032" gradientUnits="userSpaceOnUse">
<stop stop-color="#E96D65"/>
<stop offset="1" stop-color="#E13C31"/>
</linearGradient>
</defs>
</svg>
