<svg width="139" height="40" viewBox="0 0 139 40" fill="none" xmlns="http://www.w3.org/2000/svg">
<path d="M137.56 35.3529C137.56 37.4825 135.799 39.2075 133.621 39.2075H4.71272C2.53564 39.2075 0.768494 37.4825 0.768494 35.3529V4.61367C0.768494 2.48508 2.53564 0.754028 4.71272 0.754028H133.62C135.799 0.754028 137.559 2.48508 137.559 4.61367L137.56 35.3529Z" fill="white"/>
<path d="M133.205 0.800412C135.577 0.800412 137.507 2.68235 137.507 4.99512V34.9662C137.507 37.279 135.577 39.1609 133.205 39.1609H5.12327C2.7512 39.1609 0.821003 37.279 0.821003 34.9662V4.99512C0.821003 2.68235 2.7512 0.800412 5.12327 0.800412H133.205ZM133.205 -6.54162e-05H5.12327C2.30675 -6.54162e-05 0 2.24902 0 4.99512V34.9662C0 37.7123 2.30675 39.9614 5.12327 39.9614H133.205C136.021 39.9614 138.328 37.7123 138.328 34.9662V4.99512C138.328 2.24902 136.021 -6.54162e-05 133.205 -6.54162e-05Z" fill="#A6A6A6"/>
<path d="M30.8708 19.765C30.8411 16.5451 33.5749 14.9786 33.6999 14.9057C32.1516 12.7048 29.7519 12.4041 28.9086 12.3801C26.8931 12.1733 24.938 13.556 23.9113 13.556C22.8642 13.556 21.2831 12.4001 19.5791 12.4341C17.3864 12.467 15.335 13.7048 14.2099 15.627C11.8881 19.5462 13.6197 25.3057 15.8442 28.4736C16.957 30.0251 18.2573 31.7574 19.9593 31.6965C21.6243 31.6296 22.2463 30.6615 24.2556 30.6615C26.2465 30.6615 26.8306 31.6965 28.5663 31.6575C30.3533 31.6296 31.4784 30.099 32.5522 28.5335C33.8382 26.7553 34.3546 25.004 34.3751 24.914C34.3331 24.9001 30.9046 23.6243 30.8708 19.765Z" fill="#1B1B1B"/>
<path d="M27.5919 10.2961C28.4874 9.20417 29.1002 7.71861 28.9301 6.21106C27.6339 6.26701 26.0129 7.08522 25.0795 8.15319C24.2536 9.09428 23.5158 10.6368 23.7064 12.0874C25.1624 12.1933 26.6574 11.3711 27.5919 10.2961Z" fill="#1B1B1B"/>
<path d="M54.9675 31.4737H52.6405L51.3658 27.5684H46.9352L45.721 31.4737H43.4555L47.8451 18.1785H50.5564L54.9675 31.4737ZM50.9816 25.93L49.8289 22.4583C49.7069 22.1037 49.4784 21.2685 49.1413 19.9538H49.1003C48.9661 20.5192 48.7499 21.3544 48.4527 22.4583L47.3205 25.93H50.9816Z" fill="#1B1B1B"/>
<path d="M66.2561 26.5624C66.2561 28.1928 65.8042 29.4816 64.9005 30.4276C64.091 31.2698 63.0858 31.6904 61.886 31.6904C60.5908 31.6904 59.6604 31.2369 59.0938 30.3297H59.0528V35.3799H56.8682V25.0428C56.8682 24.0178 56.8406 22.9658 56.7873 21.8869H58.7085L58.8305 23.4064H58.8714C59.6 22.2615 60.7056 21.6901 62.1893 21.6901C63.3492 21.6901 64.3175 22.1366 65.0921 23.0308C65.8688 23.9259 66.2561 25.1028 66.2561 26.5624ZM64.0306 26.6403C64.0306 25.7072 63.8154 24.9379 63.383 24.3325C62.9106 23.7011 62.2764 23.3854 61.4812 23.3854C60.9423 23.3854 60.4525 23.5613 60.0149 23.9079C59.5764 24.2576 59.2895 24.7142 59.1553 25.2796C59.0876 25.5434 59.0538 25.7591 59.0538 25.929V27.5274C59.0538 28.2248 59.2731 28.8132 59.7117 29.2937C60.1502 29.7743 60.7199 30.014 61.4208 30.014C62.2436 30.014 62.884 29.7043 63.342 29.0869C63.801 28.4685 64.0306 27.6533 64.0306 26.6403Z" fill="#1B1B1B"/>
<path d="M77.5652 26.5624C77.5652 28.1928 77.1133 29.4816 76.2086 30.4276C75.4001 31.2698 74.3949 31.6904 73.1951 31.6904C71.8999 31.6904 70.9695 31.2369 70.4039 30.3297H70.3629V35.3799H68.1784V25.0428C68.1784 24.0178 68.1507 22.9658 68.0974 21.8869H70.0186L70.1406 23.4064H70.1816C70.9091 22.2615 72.0147 21.6901 73.4994 21.6901C74.6583 21.6901 75.6266 22.1366 76.4033 23.0308C77.1769 23.9259 77.5652 25.1028 77.5652 26.5624ZM75.3397 26.6403C75.3397 25.7072 75.1235 24.9379 74.6911 24.3325C74.2187 23.7011 73.5865 23.3854 72.7903 23.3854C72.2503 23.3854 71.7616 23.5613 71.323 23.9079C70.8845 24.2576 70.5986 24.7142 70.4644 25.2796C70.3978 25.5434 70.3629 25.7591 70.3629 25.929V27.5274C70.3629 28.2248 70.5822 28.8132 71.0187 29.2937C71.4573 29.7733 72.027 30.014 72.7299 30.014C73.5527 30.014 74.1931 29.7043 74.6511 29.0869C75.1101 28.4685 75.3397 27.6533 75.3397 26.6403Z" fill="#1B1B1B"/>
<path d="M90.2095 27.7452C90.2095 28.8761 89.8068 29.7963 88.9983 30.5066C88.11 31.2828 86.8732 31.6705 85.284 31.6705C83.8167 31.6705 82.6404 31.3947 81.7499 30.8423L82.2561 29.067C83.2152 29.6324 84.2675 29.9161 85.4141 29.9161C86.2369 29.9161 86.8773 29.7343 87.3374 29.3727C87.7954 29.011 88.0239 28.5255 88.0239 27.9201C88.0239 27.3806 87.8354 26.926 87.4573 26.5574C87.0812 26.1887 86.4531 25.8461 85.576 25.5294C83.1886 24.6612 81.9959 23.3894 81.9959 21.717C81.9959 20.6241 82.4139 19.728 83.2511 19.0306C84.0851 18.3323 85.1979 17.9836 86.5894 17.9836C87.8302 17.9836 88.861 18.1944 89.6838 18.615L89.1377 20.3514C88.3692 19.9438 87.5003 19.74 86.5279 19.74C85.7594 19.74 85.159 19.9248 84.7286 20.2924C84.3649 20.6211 84.1825 21.0217 84.1825 21.4963C84.1825 22.0218 84.3905 22.4563 84.8085 22.798C85.1723 23.1137 85.8332 23.4554 86.7923 23.824C87.9655 24.2846 88.8272 24.8231 89.3816 25.4405C89.9339 26.0559 90.2095 26.8261 90.2095 27.7452Z" fill="#1B1B1B"/>
<path d="M97.4322 23.4853H95.0243V28.1398C95.0243 29.3237 95.4485 29.9151 96.299 29.9151C96.6894 29.9151 97.0131 29.8822 97.2693 29.8162L97.3298 31.4337C96.8994 31.5905 96.3328 31.6694 95.6309 31.6694C94.7681 31.6694 94.0939 31.4127 93.6072 30.9002C93.1225 30.3867 92.8787 29.5255 92.8787 28.3157V23.4833H91.4442V21.8849H92.8787V20.1296L95.0243 19.4982V21.8849H97.4322V23.4853Z" fill="#1B1B1B"/>
<path d="M108.297 26.6013C108.297 28.0749 107.864 29.2847 107.001 30.2308C106.097 31.2049 104.896 31.6904 103.399 31.6904C101.956 31.6904 100.807 31.2239 99.9508 30.2908C99.0942 29.3577 98.6659 28.1798 98.6659 26.7602C98.6659 25.2746 99.1065 24.0578 99.9908 23.1117C100.873 22.1646 102.064 21.691 103.561 21.691C105.003 21.691 106.164 22.1576 107.04 23.0917C107.879 23.9978 108.297 25.1677 108.297 26.6013ZM106.03 26.6702C106.03 25.7861 105.836 25.0278 105.444 24.3954C104.986 23.6302 104.331 23.2485 103.483 23.2485C102.605 23.2485 101.938 23.6312 101.48 24.3954C101.087 25.0288 100.893 25.7991 100.893 26.7102C100.893 27.5944 101.087 28.3526 101.48 28.984C101.952 29.7493 102.612 30.1309 103.463 30.1309C104.297 30.1309 104.952 29.7413 105.425 28.964C105.827 28.3197 106.03 27.5534 106.03 26.6702Z" fill="#1B1B1B"/>
<path d="M115.398 23.7601C115.181 23.7211 114.951 23.7011 114.709 23.7011C113.94 23.7011 113.346 23.9839 112.928 24.5503C112.564 25.0498 112.382 25.6812 112.382 26.4435V31.4736H110.198L110.219 24.906C110.219 23.801 110.191 22.795 110.137 21.8879H112.04L112.12 23.7221H112.18C112.411 23.0917 112.774 22.5842 113.272 22.2036C113.759 21.8609 114.285 21.6901 114.851 21.6901C115.053 21.6901 115.236 21.704 115.398 21.729V23.7601Z" fill="#1B1B1B"/>
<path d="M125.168 26.2267C125.168 26.6084 125.142 26.9301 125.088 27.1928H118.534C118.56 28.1399 118.876 28.8642 119.485 29.3637C120.037 29.8103 120.751 30.0341 121.628 30.0341C122.599 30.0341 123.484 29.8832 124.28 29.5805L124.622 31.0591C123.692 31.4547 122.594 31.6515 121.326 31.6515C119.801 31.6515 118.605 31.2139 117.734 30.3398C116.865 29.4656 116.429 28.2917 116.429 26.8192C116.429 25.3736 116.834 24.1697 117.645 23.2096C118.493 22.1846 119.64 21.6721 121.082 21.6721C122.499 21.6721 123.572 22.1846 124.301 23.2096C124.878 24.0239 125.168 25.0309 125.168 26.2267ZM123.084 25.6743C123.099 25.0429 122.956 24.4974 122.66 24.0368C122.282 23.4444 121.701 23.1487 120.919 23.1487C120.205 23.1487 119.624 23.4374 119.181 24.0169C118.817 24.4774 118.601 25.0299 118.534 25.6733H123.084V25.6743Z" fill="#1B1B1B"/>
<path d="M50.2593 9.99943C50.2593 11.1753 49.8976 12.0604 49.1752 12.6549C48.5061 13.2033 47.5552 13.4781 46.3236 13.4781C45.7129 13.4781 45.1903 13.4521 44.7528 13.4002V6.97535C45.3235 6.88543 45.9383 6.83948 46.6023 6.83948C47.7755 6.83948 48.6598 7.08824 49.2562 7.58576C49.9242 8.14822 50.2593 8.95244 50.2593 9.99943ZM49.1271 10.0284C49.1271 9.26614 48.9201 8.6817 48.5061 8.27409C48.0922 7.86749 47.4876 7.66368 46.6915 7.66368C46.3533 7.66368 46.0654 7.68566 45.8266 7.73162V12.6159C45.9588 12.6359 46.2006 12.6449 46.5521 12.6449C47.3739 12.6449 48.0081 12.4221 48.4549 11.9765C48.9016 11.531 49.1271 10.8816 49.1271 10.0284Z" fill="#1B1B1B"/>
<path d="M56.2628 11.0264C56.2628 11.7507 56.0506 12.3442 55.6264 12.8097C55.1817 13.2882 54.5926 13.527 53.8569 13.527C53.1478 13.527 52.5832 13.2982 52.1621 12.8387C51.742 12.3801 51.5319 11.8017 51.5319 11.1043C51.5319 10.375 51.7481 9.77663 52.1826 9.31207C52.617 8.84752 53.2011 8.61475 53.9368 8.61475C54.6458 8.61475 55.2156 8.84353 55.6469 9.30208C56.0568 9.74765 56.2628 10.3231 56.2628 11.0264ZM55.149 11.0604C55.149 10.6258 55.0526 10.2532 54.861 9.94247C54.6356 9.56683 54.3149 9.37901 53.8979 9.37901C53.4665 9.37901 53.1386 9.56683 52.9132 9.94247C52.7205 10.2532 52.6252 10.6318 52.6252 11.0794C52.6252 11.514 52.7215 11.8866 52.9132 12.1973C53.1458 12.5729 53.4695 12.7607 53.8876 12.7607C54.2975 12.7607 54.6192 12.5699 54.8508 12.1873C55.0496 11.8706 55.149 11.495 55.149 11.0604Z" fill="#1B1B1B"/>
<path d="M64.3124 8.71057L62.801 13.42H61.8174L61.1913 11.375C61.0325 10.8645 60.9034 10.357 60.803 9.85347H60.7835C60.6903 10.371 60.5612 10.8775 60.3952 11.375L59.7302 13.42H58.7352L57.314 8.71057H58.4176L58.9637 10.9494C59.0959 11.4789 59.2045 11.9834 59.2916 12.461H59.3111C59.391 12.0673 59.5232 11.5658 59.7097 10.9594L60.3952 8.71157H61.2702L61.927 10.9115C62.0858 11.4479 62.2149 11.9644 62.3143 12.462H62.344C62.4168 11.9774 62.5264 11.4609 62.6719 10.9115L63.258 8.71157H64.3124V8.71057Z" fill="#1B1B1B"/>
<path d="M69.8794 13.4201H68.8055V10.7227C68.8055 9.89146 68.4817 9.47586 67.8321 9.47586C67.5134 9.47586 67.2563 9.58975 67.0565 9.81853C66.8587 10.0473 66.7583 10.3171 66.7583 10.6258V13.4191H65.6844V10.0563C65.6844 9.6427 65.6711 9.19413 65.6455 8.7086H66.5892L66.6394 9.44489H66.6691C66.7941 9.21611 66.9806 9.02729 67.2255 8.87644C67.5165 8.70061 67.8424 8.61169 68.1989 8.61169C68.6498 8.61169 69.0248 8.75356 69.323 9.03828C69.6939 9.38695 69.8794 9.90745 69.8794 10.5988V13.4201Z" fill="#1B1B1B"/>
<path d="M72.8406 13.4201H71.7678V6.54968H72.8406V13.4201Z" fill="#1B1B1B"/>
<path d="M79.1627 11.0264C79.1627 11.7507 78.9506 12.3442 78.5264 12.8097C78.0817 13.2882 77.4915 13.527 76.7568 13.527C76.0467 13.527 75.4822 13.2982 75.062 12.8387C74.6419 12.3801 74.4319 11.8017 74.4319 11.1043C74.4319 10.375 74.6481 9.77663 75.0825 9.31207C75.517 8.84752 76.101 8.61475 76.8357 8.61475C77.5458 8.61475 78.1145 8.84353 78.5469 9.30208C78.9568 9.74765 79.1627 10.3231 79.1627 11.0264ZM78.0479 11.0604C78.0479 10.6258 77.9516 10.2532 77.76 9.94247C77.5356 9.56683 77.2138 9.37901 76.7978 9.37901C76.3654 9.37901 76.0375 9.56683 75.8131 9.94247C75.6205 10.2532 75.5252 10.6318 75.5252 11.0794C75.5252 11.514 75.6215 11.8866 75.8131 12.1973C76.0457 12.5729 76.3695 12.7607 76.7876 12.7607C77.1974 12.7607 77.5181 12.5699 77.7497 12.1873C77.9495 11.8706 78.0479 11.495 78.0479 11.0604Z" fill="#1B1B1B"/>
<path d="M84.3598 13.4201H83.3956L83.3156 12.8776H83.2859C82.956 13.3102 82.4857 13.527 81.875 13.527C81.419 13.527 81.0501 13.3841 80.7724 13.1004C80.5204 12.8427 80.3943 12.522 80.3943 12.1413C80.3943 11.5659 80.6403 11.1273 81.1352 10.8236C81.6291 10.5199 82.3238 10.3711 83.2183 10.378V10.2901C83.2183 9.66973 82.8843 9.36003 82.2152 9.36003C81.7387 9.36003 81.3186 9.47692 80.9559 9.70869L80.7376 9.02135C81.1864 8.75061 81.7407 8.61475 82.3945 8.61475C83.6568 8.61475 84.2901 9.26412 84.2901 10.5629V12.2972C84.2901 12.7677 84.3136 13.1424 84.3598 13.4201ZM83.2449 11.8017V11.0754C82.0604 11.0554 81.4682 11.3721 81.4682 12.0245C81.4682 12.2702 81.5358 12.454 81.6741 12.5769C81.8125 12.6998 81.9887 12.7607 82.1988 12.7607C82.4344 12.7607 82.6547 12.6878 82.8556 12.543C83.0574 12.3971 83.1814 12.2123 83.2275 11.9855C83.2388 11.9345 83.2449 11.8726 83.2449 11.8017Z" fill="#1B1B1B"/>
<path d="M90.4616 13.4201H89.5087L89.4584 12.6638H89.4287C89.1244 13.2392 88.6059 13.527 87.8774 13.527C87.2954 13.527 86.8107 13.3042 86.4265 12.8586C86.0423 12.413 85.8506 11.8346 85.8506 11.1243C85.8506 10.362 86.0587 9.7446 86.4767 9.27306C86.8814 8.83348 87.3774 8.61369 87.9676 8.61369C88.6162 8.61369 89.0701 8.82649 89.3283 9.25308H89.3488V6.54968H90.4237V12.1513C90.4237 12.6098 90.436 13.0324 90.4616 13.4201ZM89.3488 11.434V10.6487C89.3488 10.5129 89.3386 10.403 89.3191 10.3191C89.2586 10.0673 89.1285 9.8555 88.9307 9.68466C88.7309 9.51383 88.4901 9.42791 88.2125 9.42791C87.8118 9.42791 87.4983 9.58276 87.2677 9.89346C87.0392 10.2042 86.9235 10.6008 86.9235 11.0853C86.9235 11.5509 87.0331 11.9285 87.2534 12.2192C87.486 12.5289 87.7995 12.6838 88.192 12.6838C88.5445 12.6838 88.8262 12.5549 89.0404 12.2961C89.2474 12.0574 89.3488 11.7697 89.3488 11.434Z" fill="#1B1B1B"/>
<path d="M99.6456 11.0264C99.6456 11.7507 99.4335 12.3442 99.0092 12.8097C98.5645 13.2882 97.9764 13.527 97.2397 13.527C96.5316 13.527 95.9671 13.2982 95.5449 12.8387C95.1248 12.3801 94.9147 11.8017 94.9147 11.1043C94.9147 10.375 95.1309 9.77663 95.5654 9.31207C95.9998 8.84752 96.5839 8.61475 97.3206 8.61475C98.0287 8.61475 98.5994 8.84353 99.0297 9.30208C99.4396 9.74765 99.6456 10.3231 99.6456 11.0264ZM98.5328 11.0604C98.5328 10.6258 98.4365 10.2532 98.2449 9.94247C98.0184 9.56683 97.6987 9.37901 97.2807 9.37901C96.8503 9.37901 96.5224 9.56683 96.296 9.94247C96.1033 10.2532 96.008 10.6318 96.008 11.0794C96.008 11.514 96.1044 11.8866 96.296 12.1973C96.5286 12.5729 96.8524 12.7607 97.2704 12.7607C97.6803 12.7607 98.003 12.5699 98.2346 12.1873C98.4324 11.8706 98.5328 11.495 98.5328 11.0604Z" fill="#1B1B1B"/>
<path d="M105.419 13.4201H104.347V10.7227C104.347 9.89146 104.023 9.47586 103.372 9.47586C103.054 9.47586 102.796 9.58975 102.598 9.81853C102.399 10.0473 102.299 10.3171 102.299 10.6258V13.4191H101.225V10.0563C101.225 9.6427 101.212 9.19413 101.187 8.7086H102.129L102.18 9.44489H102.209C102.335 9.21611 102.522 9.02729 102.766 8.87644C103.058 8.70061 103.382 8.61169 103.74 8.61169C104.19 8.61169 104.565 8.75356 104.863 9.03828C105.235 9.38695 105.419 9.90745 105.419 10.5988V13.4201Z" fill="#1B1B1B"/>
<path d="M112.646 9.49483H111.464V11.7826C111.464 12.3641 111.674 12.6548 112.09 12.6548C112.283 12.6548 112.442 12.6388 112.568 12.6058L112.596 13.4001C112.384 13.478 112.105 13.517 111.762 13.517C111.338 13.517 111.008 13.3911 110.769 13.1393C110.529 12.8876 110.411 12.464 110.411 11.8695V9.49483H109.705V8.71059H110.411V7.84742L111.463 7.53772V8.70959H112.645V9.49483H112.646Z" fill="#1B1B1B"/>
<path d="M118.331 13.4201H117.256V10.7426C117.256 9.89846 116.932 9.47586 116.284 9.47586C115.786 9.47586 115.446 9.72063 115.259 10.2102C115.227 10.3131 115.209 10.4389 115.209 10.5868V13.4191H114.136V6.54968H115.209V9.38795H115.229C115.568 8.87145 116.052 8.61369 116.68 8.61369C117.125 8.61369 117.493 8.75556 117.785 9.04028C118.149 9.39494 118.331 9.92243 118.331 10.6198V13.4201Z" fill="#1B1B1B"/>
<path d="M124.195 10.8426C124.195 11.0304 124.181 11.1882 124.155 11.3171H120.935C120.949 11.7827 121.103 12.1373 121.401 12.3831C121.674 12.6029 122.025 12.7128 122.455 12.7128C122.932 12.7128 123.366 12.6388 123.758 12.49L123.926 13.2173C123.468 13.4111 122.929 13.508 122.305 13.508C121.557 13.508 120.968 13.2932 120.541 12.8636C120.113 12.434 119.901 11.8576 119.901 11.1343C119.901 10.424 120.099 9.83253 120.497 9.36098C120.913 8.85747 121.476 8.60571 122.186 8.60571C122.881 8.60571 123.408 8.85747 123.765 9.36098C124.053 9.7606 124.195 10.2551 124.195 10.8426ZM123.171 10.5718C123.179 10.2611 123.108 9.99338 122.963 9.76759C122.776 9.47687 122.492 9.33101 122.108 9.33101C121.758 9.33101 121.472 9.47288 121.253 9.7576C121.075 9.98438 120.97 10.2551 120.935 10.5718H123.171Z" fill="#1B1B1B"/>
</svg>
