<svg width="139" height="40" viewBox="0 0 139 40" fill="none" xmlns="http://www.w3.org/2000/svg">
<path d="M133.636 39.9614H5.73073C2.91808 39.9614 0.614502 37.7123 0.614502 34.9662V4.99512C0.614502 2.24902 2.91808 -6.54162e-05 5.73073 -6.54162e-05H133.636C136.449 -6.54162e-05 138.753 2.24902 138.753 4.99512V34.9662C138.753 37.7123 136.449 39.9614 133.636 39.9614Z" fill="white"/>
<path d="M133.636 0.800412C136.005 0.800412 137.933 2.68235 137.933 4.99512V34.9662C137.933 37.279 136.005 39.1609 133.636 39.1609H5.73073C3.36192 39.1609 1.43438 37.279 1.43438 34.9662V4.99512C1.43438 2.68235 3.36192 0.800412 5.73073 0.800412H133.636ZM133.636 -6.54162e-05H5.73073C2.91808 -6.54162e-05 0.614502 2.24902 0.614502 4.99512V34.9662C0.614502 37.7123 2.91808 39.9614 5.73073 39.9614H133.636C136.449 39.9614 138.753 37.7123 138.753 34.9662V4.99512C138.753 2.24902 136.449 -6.54162e-05 133.636 -6.54162e-05Z" fill="#A6A6A6"/>
<path d="M49.1343 10.2338C49.1343 11.068 48.8785 11.7361 48.3745 12.2343C47.7951 12.825 47.0405 13.1222 46.1157 13.1222C45.2319 13.1222 44.4772 12.82 43.8582 12.2244C43.2378 11.6199 42.9283 10.8782 42.9283 9.99026C42.9283 9.10236 43.2378 8.36058 43.8582 7.76116C44.4772 7.16049 45.2319 6.85828 46.1157 6.85828C46.5557 6.85828 46.9752 6.94694 47.3756 7.11178C47.7746 7.27787 48.0995 7.50266 48.3349 7.77989L47.8002 8.30688C47.3896 7.83359 46.8307 7.60006 46.1157 7.60006C45.471 7.60006 44.9121 7.81985 44.4376 8.26317C43.9682 8.70774 43.7328 9.28344 43.7328 9.99026C43.7328 10.6971 43.9682 11.2778 44.4376 11.7223C44.9121 12.1607 45.471 12.3854 46.1157 12.3854C46.8 12.3854 47.3756 12.1607 47.8296 11.7173C48.1289 11.4239 48.299 11.0193 48.3438 10.5023H46.1157V9.78046H49.0882C49.124 9.93656 49.1343 10.0877 49.1343 10.2338Z" fill="#1B1B1B" stroke="#1B1B1B" stroke-width="0.16" stroke-miterlimit="10"/>
<path d="M53.8501 7.73115H51.0579V9.62932H53.5751V10.3511H51.0579V12.2493H53.8501V12.9848H50.2675V6.99561H53.8501V7.73115Z" fill="#1B1B1B" stroke="#1B1B1B" stroke-width="0.16" stroke-miterlimit="10"/>
<path d="M57.1782 12.9848H56.3877V7.73115H54.675V6.99561H58.8921V7.73115H57.1782V12.9848Z" fill="#1B1B1B" stroke="#1B1B1B" stroke-width="0.16" stroke-miterlimit="10"/>
<path d="M61.944 12.9848V6.99561H62.7331V12.9848H61.944Z" fill="#1B1B1B" stroke="#1B1B1B" stroke-width="0.16" stroke-miterlimit="10"/>
<path d="M66.2314 12.9848H65.4473V7.73115H63.7283V6.99561H67.9504V7.73115H66.2314V12.9848Z" fill="#1B1B1B" stroke="#1B1B1B" stroke-width="0.16" stroke-miterlimit="10"/>
<path d="M75.9343 12.2144C75.3293 12.82 74.5798 13.1222 73.6857 13.1222C72.7865 13.1222 72.037 12.82 71.432 12.2144C70.8283 11.6099 70.5277 10.8682 70.5277 9.99026C70.5277 9.11235 70.8283 8.37057 71.432 7.76615C72.037 7.16049 72.7865 6.85828 73.6857 6.85828C74.5746 6.85828 75.3242 7.16049 75.9292 7.77115C76.538 8.38056 76.8386 9.11735 76.8386 9.99026C76.8386 10.8682 76.538 11.6099 75.9343 12.2144ZM72.0165 11.7123C72.4719 12.1607 73.0257 12.3854 73.6857 12.3854C74.3406 12.3854 74.8995 12.1607 75.3498 11.7123C75.8038 11.264 76.034 10.6883 76.034 9.99026C76.034 9.29218 75.8038 8.71649 75.3498 8.26817C74.8995 7.81985 74.3406 7.59507 73.6857 7.59507C73.0257 7.59507 72.4719 7.81985 72.0165 8.26817C71.5625 8.71649 71.3322 9.29218 71.3322 9.99026C71.3322 10.6883 71.5625 11.264 72.0165 11.7123Z" fill="#1B1B1B" stroke="#1B1B1B" stroke-width="0.16" stroke-miterlimit="10"/>
<path d="M77.9475 12.9848V6.99561H78.9068L81.8896 11.6536H81.9241L81.8896 10.5022V6.99561H82.6787V12.9848H81.855L78.7316 8.09704H78.697L78.7316 9.25343V12.9848H77.9475Z" fill="#1B1B1B" stroke="#1B1B1B" stroke-width="0.16" stroke-miterlimit="10"/>
<path d="M70.3333 21.7315C67.9299 21.7315 65.9666 23.5173 65.9666 25.9812C65.9666 28.4251 67.9299 30.2296 70.3333 30.2296C72.7417 30.2296 74.7051 28.4251 74.7051 25.9812C74.7051 23.5173 72.7417 21.7315 70.3333 21.7315ZM70.3333 28.5562C69.0146 28.5562 67.88 27.4935 67.88 25.9812C67.88 24.4489 69.0146 23.4049 70.3333 23.4049C71.652 23.4049 72.7916 24.4489 72.7916 25.9812C72.7916 27.4935 71.652 28.5562 70.3333 28.5562ZM60.8056 21.7315C58.3971 21.7315 56.4389 23.5173 56.4389 25.9812C56.4389 28.4251 58.3971 30.2296 60.8056 30.2296C63.2128 30.2296 65.1723 28.4251 65.1723 25.9812C65.1723 23.5173 63.2128 21.7315 60.8056 21.7315ZM60.8056 28.5562C59.4856 28.5562 58.3472 27.4935 58.3472 25.9812C58.3472 24.4489 59.4856 23.4049 60.8056 23.4049C62.1243 23.4049 63.2588 24.4489 63.2588 25.9812C63.2588 27.4935 62.1243 28.5562 60.8056 28.5562ZM49.468 23.034V24.8398H53.8846C53.7554 25.8488 53.4101 26.5906 52.8806 27.1076C52.2359 27.732 51.2319 28.4251 49.468 28.4251C46.75 28.4251 44.6217 26.2834 44.6217 23.6297C44.6217 20.976 46.75 18.8343 49.468 18.8343C50.9377 18.8343 52.007 19.395 52.7961 20.1218L54.0995 18.8493C52.9957 17.8203 51.5273 17.0298 49.468 17.0298C45.7409 17.0298 42.6085 19.9907 42.6085 23.6297C42.6085 27.2687 45.7409 30.2296 49.468 30.2296C51.4825 30.2296 52.9957 29.5852 54.1852 28.3764C55.4041 27.1863 55.784 25.5129 55.784 24.1617C55.784 23.7421 55.7482 23.3562 55.6842 23.034H49.468ZM95.8287 24.4339C95.4693 23.4836 94.3603 21.7315 92.1015 21.7315C89.8632 21.7315 87.9996 23.4536 87.9996 25.9812C87.9996 28.3614 89.844 30.2296 92.3164 30.2296C94.3156 30.2296 95.4693 29.0395 95.9438 28.3464L94.4601 27.3811C93.9651 28.0879 93.2911 28.5562 92.3164 28.5562C91.3482 28.5562 90.6536 28.1229 90.2085 27.2687L96.0295 24.9172L95.8287 24.4339ZM89.8939 25.8488C89.844 24.2104 91.1972 23.3712 92.1668 23.3712C92.9265 23.3712 93.5712 23.7421 93.786 24.2728L89.8939 25.8488ZM85.1626 29.9711H87.0761V17.4831H85.1626V29.9711ZM82.029 22.6781H81.965C81.5352 22.1811 80.7154 21.7315 79.6768 21.7315C77.4973 21.7315 75.5045 23.5997 75.5045 25.9949C75.5045 28.3764 77.4973 30.2296 79.6768 30.2296C80.7154 30.2296 81.5352 29.7763 81.965 29.2643H82.029V29.8737C82.029 31.4984 81.14 32.3713 79.7062 32.3713C78.5371 32.3713 77.8119 31.5471 77.5126 30.854L75.8486 31.5321C76.3282 32.6585 77.5983 34.0447 79.7062 34.0447C81.9497 34.0447 83.8427 32.7559 83.8427 29.6202V21.99H82.029V22.6781ZM79.8405 28.5562C78.5218 28.5562 77.418 27.4785 77.418 25.9949C77.418 24.4976 78.5218 23.4049 79.8405 23.4049C81.14 23.4049 82.1645 24.4976 82.1645 25.9949C82.1645 27.4785 81.14 28.5562 79.8405 28.5562ZM104.787 17.4831H100.211V29.9711H102.119V25.2394H104.787C106.907 25.2394 108.985 23.7421 108.985 21.3607C108.985 18.9804 106.901 17.4831 104.787 17.4831ZM104.837 23.5023H102.119V19.2202H104.837C106.262 19.2202 107.075 20.3754 107.075 21.3607C107.075 22.3272 106.262 23.5023 104.837 23.5023ZM116.634 21.7078C115.255 21.7078 113.821 22.3022 113.232 23.6197L114.925 24.3128C115.29 23.6197 115.96 23.3949 116.668 23.3949C117.658 23.3949 118.662 23.9756 118.678 25.0009V25.132C118.332 24.9372 117.593 24.6487 116.684 24.6487C114.86 24.6487 113.001 25.629 113.001 27.4585C113.001 29.1319 114.495 30.2096 116.175 30.2096C117.459 30.2096 118.167 29.6439 118.613 28.9858H118.678V29.9511H120.521V25.1607C120.521 22.9466 118.827 21.7078 116.634 21.7078ZM116.404 28.5512C115.779 28.5512 114.91 28.249 114.91 27.4935C114.91 26.5269 115.994 26.156 116.933 26.156C117.773 26.156 118.167 26.3371 118.678 26.5756C118.528 27.732 117.509 28.5512 116.404 28.5512ZM127.236 21.9813L125.042 27.3948H124.977L122.709 21.9813H120.651L124.059 29.5465L122.115 33.7562H124.109L129.359 21.9813H127.236ZM110.034 29.9711H111.947V17.4831H110.034V29.9711Z" fill="#1B1B1B"/>
<path d="M11.2921 7.53138C10.9915 7.83858 10.8176 8.31687 10.8176 8.93628V31.03C10.8176 31.6494 10.9915 32.1277 11.2921 32.4349L11.3663 32.5023L24.0468 20.1267V19.8345L11.3663 7.45895L11.2921 7.53138Z" fill="url(#paint0_linear_12_490)"/>
<path d="M28.269 24.254L24.0468 20.1268V19.8345L28.2741 15.7073L28.3687 15.761L33.375 18.542C34.8037 19.3313 34.8037 20.63 33.375 21.4243L28.3687 24.2003L28.269 24.254Z" fill="url(#paint1_linear_12_490)"/>
<path d="M28.3687 24.2004L24.0468 19.9807L11.2921 32.435C11.7666 32.922 12.5404 32.9807 13.4204 32.4937L28.3687 24.2004Z" fill="url(#paint2_linear_12_490)"/>
<path d="M28.3687 15.761L13.4204 7.46777C12.5404 6.98574 11.7666 7.04443 11.2921 7.53146L24.0468 19.9807L28.3687 15.761Z" fill="url(#paint3_linear_12_490)"/>
<defs>
<linearGradient id="paint0_linear_12_490" x1="22.921" y1="31.2601" x2="6.15952" y2="14.0925" gradientUnits="userSpaceOnUse">
<stop stop-color="#00A0FF"/>
<stop offset="0.0066" stop-color="#00A1FF"/>
<stop offset="0.2601" stop-color="#00BEFF"/>
<stop offset="0.5122" stop-color="#00D2FF"/>
<stop offset="0.7604" stop-color="#00DFFF"/>
<stop offset="1" stop-color="#00E3FF"/>
</linearGradient>
<linearGradient id="paint1_linear_12_490" x1="35.2354" y1="19.9792" x2="10.476" y2="19.9792" gradientUnits="userSpaceOnUse">
<stop stop-color="#FFE000"/>
<stop offset="0.4087" stop-color="#FFBD00"/>
<stop offset="0.7754" stop-color="#FFA500"/>
<stop offset="1" stop-color="#FF9C00"/>
</linearGradient>
<linearGradient id="paint2_linear_12_490" x1="26.0186" y1="17.6869" x2="3.28872" y2="-5.59379" gradientUnits="userSpaceOnUse">
<stop stop-color="#FF3A44"/>
<stop offset="1" stop-color="#C31162"/>
</linearGradient>
<linearGradient id="paint3_linear_12_490" x1="8.08142" y1="39.7854" x2="18.2313" y2="29.3897" gradientUnits="userSpaceOnUse">
<stop stop-color="#32A071"/>
<stop offset="0.0685" stop-color="#2DA771"/>
<stop offset="0.4762" stop-color="#15CF74"/>
<stop offset="0.8009" stop-color="#06E775"/>
<stop offset="1" stop-color="#00F076"/>
</linearGradient>
</defs>
</svg>
