<svg width="157" height="33" viewBox="0 0 157 33" fill="none" xmlns="http://www.w3.org/2000/svg">
<path d="M5.25123 9.90221V32.5394H0.466715V9.90221H5.25123ZM4.92448 0.806C5.46908 1.34336 5.74134 2.01883 5.74134 2.8325C5.74134 3.64626 5.46908 4.32173 4.92448 4.85901C4.37988 5.39637 3.6953 5.66501 2.87067 5.66501C2.04604 5.66501 1.36146 5.39637 0.816861 4.85901C0.272258 4.32173 0 3.64626 0 2.8325C0 2.01883 0.272258 1.34336 0.816861 0.806C1.36146 0.268725 2.04604 0 2.87067 0C3.6953 0 4.37988 0.268725 4.92448 0.806ZM41.8233 32.5394V19.344C41.8233 17.4864 41.3877 16.0816 40.5163 15.1298C39.6605 14.1626 38.5014 13.679 37.0389 13.679C35.5451 13.679 34.2926 14.2701 33.2812 15.4522C32.2854 16.6189 31.7876 18.2309 31.7876 20.2882V32.5394H27.0031V19.344C27.0031 17.4864 26.5675 16.0816 25.6962 15.1298C24.8404 14.1626 23.6812 13.679 22.2186 13.679C20.725 13.679 19.4725 14.2701 18.4611 15.4522C17.4652 16.6189 16.9673 18.2309 16.9673 20.2882V32.5394H12.1829V9.90221H16.9673V12.2512C17.1541 12.0362 17.4108 11.7753 17.7375 11.4682C18.0798 11.1459 18.7799 10.7236 19.838 10.2016C20.9116 9.67967 22.0242 9.4187 23.1755 9.4187C24.0935 9.4187 24.9649 9.54923 25.7894 9.8102C26.6297 10.0558 27.2987 10.3706 27.7966 10.7543C28.2945 11.1228 28.7223 11.4989 29.0803 11.8828C29.4537 12.2665 29.7181 12.5813 29.8738 12.8269L30.1071 13.1954C30.1694 13.1033 30.2705 12.9727 30.4105 12.8039C30.5661 12.635 30.8851 12.328 31.3675 11.8828C31.8654 11.4374 32.3943 11.0537 32.9545 10.7313C33.5146 10.3935 34.2459 10.0943 35.1483 9.8332C36.0663 9.5569 37.0155 9.4187 37.9957 9.4187C40.6719 9.4187 42.7724 10.263 44.2972 11.9518C45.8376 13.6406 46.6078 16.1046 46.6078 19.344V32.5394H41.8233ZM68.8726 26.575C70.2891 25.1164 70.9965 23.3356 70.9965 21.2323C70.9965 19.1137 70.2891 17.3252 68.8726 15.8667C67.457 14.4082 65.7765 13.679 63.8319 13.679C61.8873 13.679 60.1988 14.4082 58.7673 15.8667C57.3514 17.3252 56.6435 19.1137 56.6435 21.2323C56.6435 23.3356 57.3514 25.1164 58.7673 26.575C60.1988 28.0335 61.8873 28.7627 63.8319 28.7627C65.7765 28.7627 67.457 28.0335 68.8726 26.575ZM55.4298 29.4996C53.0648 27.1506 51.8823 24.3949 51.8823 21.2323C51.8823 18.0544 53.0648 15.2909 55.4298 12.9421C57.8105 10.5932 60.6111 9.4187 63.8319 9.4187C67.0526 9.4187 69.8458 10.5932 72.2107 12.9421C74.5915 15.2909 75.7811 18.0544 75.7811 21.2323C75.7811 24.3949 74.5915 27.1506 72.2107 29.4996C69.8458 31.8332 67.0526 33 63.8319 33C60.6111 33 57.8105 31.8332 55.4298 29.4996ZM92.2587 32.5394H87.4979L78.1628 9.90221H83.1805L89.8779 26.4137L96.577 9.90221H101.595L92.2587 32.5394ZM110.416 9.90221V32.5394H105.631V9.90221H110.416ZM110.089 0.806C110.634 1.34336 110.906 2.01883 110.906 2.8325C110.906 3.64626 110.634 4.32173 110.089 4.85901C109.545 5.39637 108.861 5.66501 108.036 5.66501C107.21 5.66501 106.527 5.39637 105.982 4.85901C105.437 4.32173 105.165 3.64626 105.165 2.8325C105.165 2.01883 105.437 1.34336 105.982 0.806C106.527 0.268725 107.21 0 108.036 0C108.861 0 109.545 0.268725 110.089 0.806ZM120.218 7.06971V2.3489H124.513V9.90221H129.297V14.1395H124.513V25.8841C124.513 26.7284 124.786 27.4193 125.331 27.9566C125.875 28.494 126.559 28.7627 127.384 28.7627C127.742 28.7627 128.115 28.7243 128.503 28.6476C128.908 28.5707 129.22 28.4863 129.438 28.3943L129.787 28.3021V32.5394C128.838 32.8464 127.718 33 126.426 33C121.962 33 119.737 30.6433 119.752 25.9301V14.1395H115.434V9.90221H117.837C119.425 9.90221 120.218 8.95811 120.218 7.06971ZM150.092 26.575C151.509 25.1164 152.216 23.3356 152.216 21.2323C152.216 19.1137 151.509 17.3252 150.092 15.8667C148.677 14.4082 146.996 13.679 145.051 13.679C143.106 13.679 141.418 14.4082 139.986 15.8667C138.571 17.3252 137.863 19.1137 137.863 21.2323C137.863 23.3356 138.571 25.1164 139.986 26.575C141.418 28.0335 143.106 28.7627 145.051 28.7627C146.996 28.7627 148.677 28.0335 150.092 26.575ZM136.649 29.4996C134.284 27.1506 133.101 24.3949 133.101 21.2323C133.101 18.0544 134.284 15.2909 136.649 12.9421C139.03 10.5932 141.83 9.4187 145.051 9.4187C148.272 9.4187 151.065 10.5932 153.43 12.9421C155.81 15.2909 157 18.0544 157 21.2323C157 24.3949 155.81 27.1506 153.43 29.4996C151.065 31.8332 148.272 33 145.051 33C141.83 33 139.03 31.8332 136.649 29.4996Z" fill="#007BFF"/>
</svg>
