<?xml version="1.0" encoding="utf-8"?><svg viewBox="0 0 813 628" xmlns="http://www.w3.org/2000/svg" xmlns:xlink="http://www.w3.org/1999/xlink"><style>:root>svg{display:none}:root>svg:target{display:block}</style><svg viewBox="0 0 300 78" id="discount" xmlns="http://www.w3.org/2000/svg"><path d="M205 39v38.5H.5V.5h299v38H205v.5z"/></svg><svg viewBox="0 0 502.664 502.664" id="icon" xmlns="http://www.w3.org/2000/svg"><path d="M153.821 358.226L0 274.337v-46.463l153.821-83.414v54.574L46.636 250.523l107.185 53.431v54.272zm26.273 29.358L282.103 115.08h32.227L212.084 387.584h-31.99zm168.749-29.358v-54.272l107.164-52.999-107.164-52.59v-53.927l153.821 83.522v46.183l-153.821 84.083z"/></svg><svg viewBox="0 0 813 628" id="mask" xmlns="http://www.w3.org/2000/svg"><path d="M0 142.135a13 13 0 0110.9-12.829L797.9.472c7.913-1.295 15.1 4.811 15.1 12.83v472.563a13 13 0 01-10.9 12.829l-787 128.834C7.187 628.823 0 622.717 0 614.699V142.135z"/></svg><svg viewBox="0 0 26 25" id="phone" xmlns="http://www.w3.org/2000/svg"><path d="M8.73 2.106c-.362-.835-1.313-1.28-2.222-1.042L2.383 2.142C1.567 2.358 1 3.067 1 3.876 1 14.989 10.403 24 22 24c.843 0 1.583-.544 1.808-1.325l1.125-3.953c.249-.872-.215-1.783-1.087-2.13l-4.5-1.796c-.764-.305-1.65-.094-2.17.521l-1.894 2.215c-3.3-1.496-5.971-4.057-7.532-7.22l2.31-1.81a1.745 1.745 0 00.544-2.08L8.73 2.112v-.005z"/><defs><linearGradient id="da" x1="21.463" y1="1" x2="21.477" y2="22.103" gradientUnits="userSpaceOnUse"><stop stop-color="#E96D65"/><stop offset="1" stop-color="#E13C31"/></linearGradient></defs></svg></svg>